<?xml version="1.0" encoding="UTF-8"?>
<!-- Generated by Pixelmator Pro 3.6.5 -->
<svg width="500" height="500" viewBox="0 0 500 500" xmlns="http://www.w3.org/2000/svg">
    <path id="Path" fill="#000000" stroke="none" d="M 75 0 L 425 0 C 466.421356 0 500 33.578644 500 75 L 500 425 C 500 466.421356 466.421356 500 425 500 L 75 500 C 33.578644 500 0 466.421356 0 425 L 0 75 C -0 33.578644 33.578644 0 75 0 Z"/>
    <path id="SC" fill="#ffffff" fill-rule="evenodd" stroke="none" d="M 397.061798 214.839783 L 442.00769 214.839783 C 440.627777 202.617584 437.276581 191.775482 431.95401 182.313171 C 426.631439 172.85083 419.879761 164.916382 411.698792 158.509583 C 403.517792 152.102783 394.252747 147.223846 383.90329 143.872589 C 373.553864 140.521362 362.563904 138.845764 350.933136 138.845764 C 334.76828 138.845764 320.230011 141.704132 307.317871 147.420959 C 294.405701 153.137787 283.514343 161.022949 274.643372 171.076691 C 265.77243 181.130432 258.971497 192.908875 254.240311 206.412445 C 249.50914 219.915985 247.1436 234.552826 247.1436 250.32338 C 247.1436 265.699707 249.50914 280.040833 254.240311 293.347229 C 258.971497 306.653687 265.77243 318.234985 274.643372 328.091614 C 283.514343 337.948212 294.405701 345.685547 307.317871 351.303772 C 320.230011 356.922058 334.76828 359.73114 350.933136 359.73114 C 363.943848 359.73114 375.870148 357.759857 386.712402 353.8172 C 397.554688 349.874573 407.016876 344.157837 415.099304 336.666809 C 423.181702 329.175781 429.686981 320.107849 434.615265 309.462708 C 439.543579 298.817566 442.599091 286.891266 443.78186 273.683411 L 398.835968 273.683411 C 397.061798 287.876953 392.182831 299.310425 384.199005 307.984253 C 376.215149 316.658051 365.126617 320.994873 350.933136 320.994873 C 340.485107 320.994873 331.614319 318.974304 324.320435 314.933105 C 317.02655 310.891907 311.112671 305.520142 306.578613 298.817627 C 302.044586 292.115143 298.742676 284.574951 296.672791 276.196838 C 294.602905 267.818726 293.567963 259.194336 293.567963 250.32338 C 293.567963 241.058167 294.602905 232.088806 296.672791 223.414978 C 298.742676 214.74118 302.044586 207.003876 306.578613 200.202789 C 311.112671 193.401733 317.02655 187.980682 324.320435 183.939484 C 331.614319 179.898285 340.485107 177.877716 350.933136 177.877716 C 356.649963 177.877716 362.1203 178.814056 367.344299 180.686829 C 372.568298 182.55957 377.250092 185.171539 381.389862 188.522797 C 385.529663 191.874023 388.979401 195.767334 391.739258 200.202789 C 394.499115 204.638275 396.273285 209.517212 397.061798 214.839783 Z M 96.04261 284.919891 L 51.096718 284.919891 C 50.899586 297.930603 53.265137 309.166992 58.193439 318.629333 C 63.121742 328.091675 69.774849 335.878235 78.152962 341.989349 C 86.531075 348.100464 96.190407 352.585144 107.131233 355.443542 C 118.072067 358.301941 129.357712 359.73114 140.988495 359.73114 C 155.37915 359.73114 168.044693 358.055542 178.985519 354.704285 C 189.926346 351.353058 199.09285 346.671234 206.485306 340.658691 C 213.877762 334.646179 219.446655 327.500244 223.192169 319.220703 C 226.937683 310.941162 228.81041 301.971802 228.81041 292.312317 C 228.81041 280.484375 226.297012 270.775757 221.270142 263.186188 C 216.243271 255.596603 210.280121 249.534882 203.380493 245.000839 C 196.480865 240.466797 189.532074 237.164886 182.533875 235.095001 C 175.53569 233.025116 170.065353 231.595947 166.122711 230.807404 C 152.914871 227.456177 142.220612 224.69635 134.039627 222.527893 C 125.85865 220.359436 119.45195 218.19104 114.819351 216.022583 C 110.186745 213.854126 107.081963 211.488586 105.504906 208.925842 C 103.927849 206.363129 103.139328 203.011932 103.139328 198.872162 C 103.139328 194.338135 104.124977 190.592682 106.096298 187.635712 C 108.067619 184.678711 110.581017 182.2146 113.636559 180.243286 C 116.692108 178.271973 120.092583 176.892059 123.838097 176.103516 C 127.583603 175.315002 131.329056 174.920746 135.07457 174.920746 C 140.791397 174.920746 146.064606 175.413574 150.894333 176.399231 C 155.724075 177.384888 160.011627 179.060486 163.757141 181.426056 C 167.502655 183.791656 170.508865 187.044281 172.775894 191.184052 C 175.042908 195.323822 176.373535 200.54776 176.767792 206.855988 L 221.713684 206.855988 C 221.713684 194.633789 219.397415 184.235229 214.764816 175.659973 C 210.132217 167.084747 203.873367 160.037384 195.988083 154.51767 C 188.102798 148.997986 179.084137 145.006104 168.931839 142.541962 C 158.779526 140.07782 148.183838 138.845764 137.14444 138.845764 C 127.682106 138.845764 118.21991 140.127075 108.757568 142.689819 C 99.295227 145.252533 90.818672 149.195099 83.327652 154.51767 C 75.836632 159.84024 69.774918 166.493347 65.142311 174.477203 C 60.509705 182.46106 58.193439 191.873962 58.193439 202.716217 C 58.193439 212.375702 60.016884 220.605835 63.663826 227.406891 C 67.310768 234.207947 72.091148 239.875427 78.005112 244.409454 C 83.919075 248.943497 90.621468 252.639664 98.112488 255.498077 C 105.603508 258.356506 113.291542 260.771332 121.176826 262.742645 C 128.864975 264.911102 136.454453 266.882385 143.945465 268.656586 C 151.436493 270.430786 158.13887 272.50061 164.052841 274.866211 C 169.966797 277.231812 174.747177 280.188721 178.394135 283.737122 C 182.041077 287.285492 183.864517 291.91803 183.864517 297.634857 C 183.864517 302.957397 182.484604 307.343536 179.724762 310.793335 C 176.96492 314.243164 173.515152 316.953674 169.375381 318.924988 C 165.235611 320.896332 160.800201 322.226929 156.069031 322.916931 C 151.33786 323.606873 146.902451 323.951843 142.76268 323.951843 C 136.651581 323.951843 130.737717 323.212616 125.020882 321.734131 C 119.304054 320.255615 114.326538 317.988647 110.088203 314.933105 C 105.849861 311.877563 102.449387 307.885681 99.886665 302.957397 C 97.323952 298.029083 96.04261 292.016663 96.04261 284.919891 Z"/>
</svg>
